<?xml version="1.0" standalone="no"?>
<!DOCTYPE svg PUBLIC "-//W3C//DTD SVG 1.1//EN" "http://www.w3.org/Graphics/SVG/1.1/DTD/svg11.dtd" >
<svg xmlns="http://www.w3.org/2000/svg">
<metadata>
Created by FontForge 20120731 at Wed Jun 22 15:42:17 2016
 By admin
</metadata>
<defs>
<font id="iconfont" horiz-adv-x="1024" >
  <font-face 
    font-family="iconfont"
    font-weight="500"
    font-stretch="normal"
    units-per-em="1024"
    panose-1="2 0 6 3 0 0 0 0 0 0"
    ascent="896"
    descent="-128"
    x-height="792"
    bbox="0.714286 -122 1023.25 881.647"
    underline-thickness="50"
    underline-position="-100"
    unicode-range="U+0078-E618"
  />
<missing-glyph horiz-adv-x="374" 
d="M34 0v682h272v-682h-272zM68 34h204v614h-204v-614z" />
    <glyph glyph-name=".notdef" horiz-adv-x="374" 
d="M34 0v682h272v-682h-272zM68 34h204v614h-204v-614z" />
    <glyph glyph-name=".null" horiz-adv-x="0" 
 />
    <glyph glyph-name="nonmarkingreturn" horiz-adv-x="341" 
 />
    <glyph glyph-name="x" unicode="x" horiz-adv-x="1001" 
d="M281 543q-27 -1 -53 -1h-83q-18 0 -36.5 -6t-32.5 -18.5t-23 -32t-9 -45.5v-76h912v41q0 16 -0.5 30t-0.5 18q0 13 -5 29t-17 29.5t-31.5 22.5t-49.5 9h-133v-97h-438v97zM955 310v-52q0 -23 0.5 -52t0.5 -58t-10.5 -47.5t-26 -30t-33 -16t-31.5 -4.5q-14 -1 -29.5 -0.5
t-29.5 0.5h-32l-45 128h-439l-44 -128h-29h-34q-20 0 -45 1q-25 0 -41 9.5t-25.5 23t-13.5 29.5t-4 30v167h911zM163 247q-12 0 -21 -8.5t-9 -21.5t9 -21.5t21 -8.5q13 0 22 8.5t9 21.5t-9 21.5t-22 8.5zM316 123q-8 -26 -14 -48q-5 -19 -10.5 -37t-7.5 -25t-3 -15t1 -14.5
t9.5 -10.5t21.5 -4h37h67h81h80h64h36q23 0 34 12t2 38q-5 13 -9.5 30.5t-9.5 34.5q-5 19 -11 39h-368zM336 498v228q0 11 2.5 23t10 21.5t20.5 15.5t34 6h188q31 0 51.5 -14.5t20.5 -52.5v-227h-327z" />
    <glyph glyph-name="uniE600" unicode="&#xe600;" 
d="M71 438q43 -11 48 -12l352 -88q7 -1 9 -9q17 -70 99 -398q5 -17 -3 -30t-25 -16q-13 -1 -23.5 6.5t-14.5 21.5q-5 21 -14.5 60t-13.5 54q-51 206 -61 246q-2 7 -9 9q-157 39 -360 90q-24 6 -38 22.5t-16 39.5q-2 22 10 40.5t34 27.5q206 88 557 236q270 114 326 138
q29 12 57 -1.5t36 -44.5q6 -22 -4 -45q-9 -20 -117 -275q-160 -379 -169 -401q-11 -26 -35 -24q-18 1 -27 15.5t-2 31.5q3 7 29 70q33 71 95 224q107 253 160 379l4 8q-812 -343 -884 -373v-2v0zM71 438z" />
    <glyph glyph-name="uniE601" unicode="&#xe601;" 
d="M935 440q19 19 11 45t-35 30l-231 31q-25 13 -31 25l-100 206q-9 23 -37 23t-37 -23l-100 -206q-12 -25 -31 -25l-231 -31q-27 -5 -35 -27.5t11 -40.5l161 -162q13 -13 13 -38l-37 -230q-5 -24 17 -40.5t45 -3.5l205 106q19 10 38 0l205 -106q24 -14 45.5 1t16.5 43
l-37 224q0 25 13 37zM730 322q-31 -31 -31 -81v-6l25 -162q0 -9 -7 -13t-12 1l-149 74q-25 13 -50 13q-19 0 -44 -13l-149 -74q-12 -6 -19 4q-3 5 0 8l31 168v6q0 50 -31 81l-112 112q-5 5 -1 13t13 12l156 19q27 0 49 18.5t32 43.5l69 144q4 9 12 9t12 -9l69 -144
q12 -37 68 -56q20 -5 63.5 -11.5t77.5 -9.5l34 -4q10 0 12.5 -7.5t-6.5 -17.5zM730 322z" />
    <glyph glyph-name="uniE602" unicode="&#xe602;" 
d="M459.5 184q-38.5 0 -65.5 -27t-27 -65t27 -65t65.5 -27t65.5 27t27 65t-27 65t-65.5 27zM459.5 41q-21.5 0 -36.5 15t-15 36t15 36t36.5 15t36.5 -15t15 -36t-15 -36t-36.5 -15zM766 184q-38 0 -65 -27t-27 -65t27 -65t65 -27t65.5 27t27.5 65t-27.5 65t-65.5 27z
M766.5 41q-21.5 0 -36.5 15t-15 36t15 36t36.5 15t36.5 -15t15 -36t-15 -36t-36.5 -15zM947 617q-15 19 -44 19h-424q-8 0 -14 -6t-6 -14.5t6 -14.5t14 -6h424q10 0 12 -3q3 -4 2 -12l-66 -267q-4 -16 -18 -31.5t-26 -15.5h-404q-13 0 -24.5 15t-14.5 37l-62 402v1t-1 1
q0 3 -1 4.5t-2 3.5q-1 0 -1.5 0.5t-0.5 1.5l-44 41q-6 5 -14 5h-109q-22 0 -37 -17t-15 -44t15 -44.5t37 -17.5h109q8 0 14 6l16 14l55 -364q6 -34 27.5 -60t52.5 -26h404q28 0 52.5 25.5t31.5 52.5l66 267q6 28 -10 47z" />
    <glyph glyph-name="uniE603" unicode="&#xe603;" 
d="M459.5 179q-38.5 0 -65.5 -27t-27 -65t27 -65t65.5 -27t65.5 27t27 65t-27 65t-65.5 27zM766 179q-38 0 -65 -27t-27 -65t27 -65t65 -27t65.5 27t27.5 65t-27.5 65t-65.5 27zM947 612q-15 19 -44 19h-588l-13 84v1t-1 1q0 3 -1 4t-2 4q-1 0 -1.5 0.5t-0.5 1.5l-44 41
q-6 5 -14 5h-109q-22 0 -37 -17.5t-15 -44t15 -44t37 -17.5h109q8 0 14 6l16 14l55 -364q6 -34 27.5 -60t52.5 -26h404q28 0 52.5 25.5t31.5 52.5l66 267q6 28 -10 47z" />
    <glyph glyph-name="uniE605" unicode="&#xe605;" 
d="M457 94q-93 0 -172.5 46t-125.5 125.5t-46 172.5t46 172.5t125.5 125.5t172.5 46t172.5 -46t125.5 -125.5t46 -172.5t-46 -172.5t-125.5 -125.5t-172.5 -46zM457 697q-107 0 -183 -76t-76 -183t76 -183t183 -76t183 76t76 183t-76 183t-183 76zM859 -16q-22 0 -37 15
l-180 180q-15 15 -15 36.5t15 37t37 15.5t37 -15l180 -180q15 -15 15 -36.5t-15.5 -37t-36.5 -15.5z" />
    <glyph glyph-name="uniE606" unicode="&#xe606;" 
d="M519 67q-5 0 -9 3q-100 62 -174 126q-179 150 -179 264q0 107 69 168q59 52 146 52q93 0 147 -56q54 56 147 56q87 0 146 -52q69 -61 69 -168q0 -113 -178 -264q-74 -63 -174 -127q-5 -2 -10 -2z" />
    <glyph glyph-name="uniE607" unicode="&#xe607;" 
d="M512 -51l-18 16q-16 15 -41 39.5t-81.5 86.5t-100 120t-78.5 129t-35 124q0 96 47.5 177.5t129 129t177.5 47.5t177.5 -47.5t129 -129t47.5 -177.5q0 -53 -34.5 -124t-78 -129t-100 -120t-81.5 -86.5t-42 -39.5l-18 -16v0zM512 765q-124 0 -212 -88t-88 -213
q0 -45 32 -108.5t82.5 -127.5t96.5 -114.5t89 -91.5q44 41 90 91.5t96.5 114.5t82.5 127.5t32 108.5q0 125 -88 213t-213 88v0zM512 333q-60 0 -102.5 43t-42.5 103t42.5 103t103 43t103 -43t42.5 -103t-42.5 -103t-103.5 -43v0zM512 571q-38 0 -65 -27t-27 -65t27 -65
t65.5 -27t65.5 27t27 65t-27.5 65t-65.5 27v0zM512 571z" />
    <glyph glyph-name="uniE608" unicode="&#xe608;" 
d="M519 67q-5 0 -9 3q-100 62 -174 126q-179 150 -179 264q0 107 69 168q59 52 146 52q93 0 147 -56q54 56 147 56q87 0 146 -52q69 -61 69 -168q0 -113 -178 -264q-74 -63 -174 -127q-5 -2 -10 -2zM372 643q-33 0 -63 -10t-56.5 -30.5t-42.5 -57.5t-16 -85q0 -96 166 -236
q72 -61 159 -117q86 55 161 117q164 140 164 236q0 48 -16 85t-42.5 57.5t-56.5 30.5t-63 10q-42 0 -78 -16t-53 -42q-6 -8 -16 -8q-9 0 -15 8q-18 27 -54 42.5t-78 15.5zM372 643z" />
    <glyph glyph-name="uniE609" unicode="&#xe609;" 
d="M963 499q-22 28 -61 41.5t-84 13.5h-99q4 39 7 74q15 96 -9.5 160t-95.5 77q-40 7 -74 -7t-50 -45t-24 -82q-3 -17 -1 -55.5t-2 -52.5q-14 -54 -73 -89q-51 -30 -139 -45q-30 -3 -65.5 -2.5t-66 3t-56 -6.5t-34.5 -33q-6 -13 -7 -33t0.5 -51.5t1.5 -39.5v-288v-20v-20
q0 -5 0.5 -17.5t1.5 -17.5t3 -14.5t5 -14.5t7 -10.5t10 -10.5q11 -8 42.5 -11t60 -3t71 1.5t52.5 1.5v537q80 4 150.5 53.5t88.5 115.5q5 21 6 55.5t0.5 60t8 50t28.5 33.5q23 10 40.5 10t29.5 -8.5t20 -22t12 -33t6 -39.5t1 -42.5t-2.5 -40.5t-4.5 -35q-3 -31 -10 -97v-5
q16 1 55 4t64 3.5t56.5 -1.5t53.5 -11t34 -26q17 -22 19.5 -64t-8.5 -74q-24 -82 -77.5 -198.5t-91.5 -147.5q-15 -11 -32.5 -14t-34.5 -1t-44 -2q-47 -1 -142 -2.5t-142 -2.5v-55q235 3 384 5q18 5 39.5 23t34.5 35q14 18 33 57t25 49q67 115 102 241q14 49 8 102t-31 85z
M229 -43h-137q-7 11 -8.5 32.5t0.5 55.5t2 41q0 17 0.5 146.5t0.5 196.5q8 5 28 6.5t38 1t44 -1.5t32 -1v-477zM229 -43z" />
    <glyph glyph-name="uniE60A" unicode="&#xe60a;" 
d="M730 492h55v-54h-55v54zM730 492zM730 329h55v-55h-55v55zM730 329zM730 165h55v-54h-55v54zM730 165zM403 492h54v-54h-54v54zM403 492zM403 329h54v-55h-54v55zM403 329zM239 492h55v-54h-55v54zM239 492zM403 656h54v-55h-54v55zM403 656zM239 656h55v-55h-55v55z
M239 656zM239 329h55v-55h-55v55zM239 329zM894 656h-273v109q0 23 -16 39t-38 16h-437q-22 0 -38 -16t-16 -39v-763q0 -23 16 -39t38 -16h437h327q22 0 38 16t16 39v599q0 23 -16 39t-38 16zM376 2h-55v109h55v-109zM567 2h-137v136q0 12 -8 19.5t-19 7.5h-109
q-11 0 -19 -7.5t-8 -19.5v-136h-109q-12 0 -20 8t-8 19v709q0 11 8 19t20 8h381q12 0 20 -8t8 -19v-736zM894 29q0 -11 -8 -19t-20 -8h-245v599h245q12 0 20 -7.5t8 -19.5v-545zM894 29z" />
    <glyph glyph-name="uniE60B" unicode="&#xe60b;" 
d="M422 872q-107 0 -197.5 -52.5t-143 -143t-52.5 -197.5t52.5 -197.5t143 -143t197.5 -52.5t197.5 52.5t143 143t52.5 197.5t-52.5 197.5t-143 143t-197.5 52.5zM422 173q-127 0 -216.5 89.5t-89.5 216t89.5 216.5t216.5 90t216.5 -90t89.5 -216.5t-89.5 -216t-216.5 -89.5
zM397 709q-85 0 -145 -60t-60 -145q0 -17 12 -29.5t30 -12.5q17 0 29 12t12 30q0 51 36 87t87 36q17 0 29.5 12t12.5 29.5t-12.5 29t-30.5 11.5zM984 -25l-194 194q-10 10 -25.5 10t-27.5 -10l-18 -18q-10 -11 -10 -26t10 -27l194 -194q11 -10 26 -10t27 10l18 18
q11 11 11 26.5t-11 26.5zM984 -25z" />
    <glyph glyph-name="uniE60E" unicode="&#xe60e;" 
d="M448 839q-78 0 -149.5 -29.5t-127 -85t-85 -127t-29.5 -149.5q0 -106 52.5 -196t142.5 -142.5t196 -52.5q78 0 149.5 30t126.5 85t85 126.5t30 149.5q0 106 -52.5 196t-142.5 142.5t-196 52.5zM683.5 212.5q-97.5 -97.5 -235.5 -97.5q-91 0 -168 44.5t-121.5 121.5
t-44.5 167q0 138 98 236t236 98q90 0 167 -44.5t121.5 -121.5t44.5 -168q0 -138 -97.5 -235.5zM958 -20l-122 122q-9 9 -21.5 9t-21 -8.5t-8.5 -21t9 -21.5l122 -122q9 -9 21.5 -9t21 8.5t8.5 21t-9 21.5z" />
    <glyph glyph-name="uniE610" unicode="&#xe610;" 
d="M935 440q19 19 11 45t-35 30l-231 31q-25 13 -31 25l-100 206q-9 23 -37 23t-37 -23l-100 -206q-12 -25 -31 -25l-231 -31q-27 -5 -35 -27.5t11 -40.5l161 -162q13 -13 13 -38l-37 -230q-5 -24 17 -40.5t45 -3.5l205 106q19 10 38 0l205 -106q24 -14 45.5 1t16.5 43
l-37 224q0 25 13 37zM730 322z" />
    <glyph glyph-name="uniE613" unicode="&#xe613;" 
d="M840 518q84 183 109 236q19 39 1 67q-19 30 -64 30h-721q-11 0 -18.5 -7.5t-7.5 -18t7.5 -18t18.5 -7.5h721q17 0 21 -6q2 -4 -4 -18q-10 -21 -114 -247q-5 -11 0 -21q104 -227 114 -248q6 -13 4 -17q-4 -6 -21 -6h-696v318v40q0 11 -7.5 18.5t-18 7.5t-18 -7.5
t-7.5 -18.5v-40v-344v-179h-25q-32 0 -54.5 -22.5t-22.5 -54.5t22.5 -54.5t54.5 -22.5h102q32 0 54.5 22.5t22.5 54.5t-22.5 54.5t-54.5 22.5h-26v154h696q45 0 64 30q18 27 -1 66q-25 54 -109 236z" />
    <glyph glyph-name="uniE614" unicode="&#xe614;" 
d="M977 452q7 6 7 14.5t-7 14.5l-410 363q-24 23 -57.5 23t-57.5 -23q-72 -73 -202.5 -181.5t-202.5 -181.5q-15 -14 0 -28zM977 481zM174 382q-9 0 -14.5 -5.5t-5.5 -14.5v-312q0 -34 23.5 -57.5t57.5 -23.5h551q34 0 58 23.5t24 57.5v312q-2 7 -8.5 13.5t-13.5 6.5v0h-672
zM233 7zM44 454l935 -2zM173 382h674h-674z" />
    <glyph glyph-name="uniE615" unicode="&#xe615;" 
d="M887 521q-6 13 -21 35t-19 29q31 29 31 72q0 42 -29 71t-71 29q-29 0 -53 -15.5t-36 -41.5q-40 12 -57.5 16.5t-53 11t-64.5 6.5q-9 0 -18.5 -1t-17.5 -1.5t-18.5 -2t-17 -2.5t-18 -4t-16 -4t-17 -4.5t-15.5 -4t-16 -4.5t-15 -4q-13 24 -36.5 39t-52.5 15
q-41 0 -70 -29.5t-29 -70.5q0 -43 31 -73q-19 -15 -43 -59q-28 -50 -39.5 -88.5t-11.5 -90.5q0 -90 56 -167t153 -122t211 -45t210.5 45t153 122t56.5 167q0 79 -47 176zM514.5 213q-56.5 0 -97 27.5t-40.5 66.5t40.5 66.5t97 27.5t97 -27.5t40.5 -66.5t-40.5 -66.5
t-97 -27.5z" />
    <glyph glyph-name="uniE616" unicode="&#xe616;" 
d="M840 538q84 182 109 236q19 39 1 66q-19 30 -64 30h-721q-11 0 -18.5 -7.5t-7.5 -17.5v-282v-333v-179h-25q-32 0 -54.5 -22.5t-22.5 -54t22.5 -54t54.5 -22.5h102q32 0 54.5 22.5t22.5 54t-22.5 54t-54.5 22.5h-26v154h696q45 0 64 30q18 28 -1 67q-25 53 -109 236z" />
    <glyph glyph-name="uniE617" unicode="&#xe617;" 
d="M977 481l-410 363q-24 23 -57.5 23t-57.5 -23q-72 -73 -202.5 -181.5t-202.5 -181.5q-15 -14 0 -28q14 -14 28 0l407 362q12 12 28.5 12t27.5 -12l411 -363q14 -15 28 0q7 6 7 14.5t-7 14.5zM977 481zM846 382q-9 0 -14.5 -5.5t-5.5 -14.5v-312q0 -16 -12 -28t-28 -12
h-133h-42v116q0 40 -28.5 68.5t-68.5 28.5t-68.5 -28.5t-28.5 -68.5v-119h-51h-133q-16 0 -28 12t-12 28v315q0 9 -5.5 14.5t-14 5.5t-14 -5.5t-5.5 -14.5v-312q0 -34 23.5 -57.5t57.5 -23.5h551q34 0 58 23.5t24 57.5v312q-2 7 -8.5 13.5t-13.5 6.5z" />
    <glyph glyph-name="uniE618" unicode="&#xe618;" 
d="M366 320q0 39 40 66.5t97 27.5t97 -27.5t40 -66.5t-40 -66.5t-97 -27.5t-97 27.5t-40 66.5zM502 8q-118 0 -218.5 47t-159 128t-58.5 176q0 7 4.5 11.5t11.5 4.5t12 -4.5t5 -11.5q0 -86 54 -159.5t147 -116t202.5 -42.5t202 42.5t147 116t54.5 159.5q0 75 -46 169
q-5 12 -22 36q-12 17 -17 26l-6 11l9 9q26 25 26 61q0 34 -24.5 58.5t-58.5 24.5q-24 0 -44.5 -13t-30.5 -34l-6 -13l-22 6q-105 31 -162 31q-55 0 -153 -29l-24 -6l-6 12q-11 20 -31 32.5t-43 12.5q-35 0 -59.5 -24.5t-24.5 -59.5q0 -36 27 -61l14 -13l-15 -11
q-17 -13 -40 -55q-3 -6 -9.5 -7.5t-12.5 1.5t-8 9.5t2 12.5q16 30 35 52q-25 31 -25 72q0 48 34 82t82 34q61 0 96 -51q101 29 161 29q62 0 167 -30q16 25 42 39.5t56 14.5q48 0 82 -34t34 -82q0 -43 -27 -75q2 -4 9 -14q18 -26 25 -40q48 -101 48 -183q0 -95 -58.5 -176
t-159 -128t-218.5 -47z" />
  </font>
</defs>
</svg>
